<?xml version="1.0" encoding="utf-8"?>
<!-- Generator: Adobe Illustrator 25.2.1, SVG Export Plug-In . SVG Version: 6.00 Build 0)  -->
<svg version="1.1" id="Camada_1" xmlns="http://www.w3.org/2000/svg" xmlns:xlink="http://www.w3.org/1999/xlink" x="0px" y="0px"
	 viewBox="0 0 250 250" style="enable-background:new 0 0 250 250;" xml:space="preserve">
<g>
	<path d="M134,189.4c-10.1-0.5-26.4-7-35.2-20.3c-0.2-0.3-0.6-0.6-1-0.6c-2.9-0.2-4.4-2.3-5.8-4.6c-2.6-4.2-4-8.8-4.9-13.5
		c-0.5-2.7-0.8-5.4-1.2-8.3c-0.1-0.7-0.8-1.2-1.6-1.1l0,0c-0.5,0.1-1.1-0.1-1.4-0.5c-5-8.3-4.7-24.2-0.1-33.7
		c0.2-0.4,0.7-0.7,1.1-0.7c3.3,0,6.5-0.1,9.7,0c10.1,0.3,17.9-4,24.3-11.5c1.9-2.3,3.9-4.6,5.7-6.7c0.3-0.4,0.8-0.5,1.3-0.4
		c1.9,0.5,2.5,1.9,3.3,3.1c4,6,8.9,10.8,15.7,13.4c5.4,2.1,11,3.7,17,2.3c1.6-0.4,3.4-0.1,5.4-0.1c0.5,0,0.9,0.3,1.1,0.7
		c5.5,11.2,6,22.4,2.4,34.1c-0.2,0.6-0.9,1-1.5,0.9l-0.7-0.2c-0.7-0.2-1.4,0.3-1.5,1c-1.7,9.9-5.1,18.9-12.6,25.9
		c-0.4,0.4-0.9,0.4-1.4,0.2c-0.3-0.2-0.7-0.3-1-0.5c-0.1-0.1-0.3,0.1-0.7,0.1c-2.8,4.5-6.6,8.4-11.1,11.7c-2.5,1.9-3.9,4.6-3.9,7.8
		C135.3,188.9,134.7,189.4,134,189.4z M94.1,137.7c-0.7,1.3-1,1.7-0.9,1.9c1.3,7.8,3.3,15.3,7.1,22.2c5.5,9.9,12.5,17.9,25,19
		c0.2,0,0.5,0,0.7-0.1c0.8-0.3,1.8-0.4,2.9-0.6c1.3-0.3,1.4-2.1,0.1-2.5c-0.8-0.2-1.5-0.4-2.3-0.6c-1.6-0.5-3.2-0.8-4.7-1.5
		c-11.1-5-17.9-14-22.9-24.6C97.3,146.8,96,142.6,94.1,137.7z M165.5,133.4c1.7-3.2,2.1-7.3,1-10.8c-0.4-1.4-2.5-1-2.5,0.5
		c0.1,3.2,0,6.4-0.9,9.3C162.7,133.9,164.7,134.8,165.5,133.4z M103.6,150.8c1.2,0.9,2.7-0.8,1.7-1.9c-1.1-1.1-2-2.3-2.9-3.6
		c-1-1.6-1.8-3.5-2.5-5.4c-0.5-1.4-2.6-0.9-2.5,0.6C97.9,144.5,100.3,148.4,103.6,150.8z"/>
	<path d="M81.2,64.6c-1.6,2.8-2.9,5.4-1.8,8.8c0,0.1,0.1,0.3,0.2,0.4c0.3,0.4,0.7,1,1.2,1.5c5.4,5.8,9.3,6.3,15.6,1.4
		c3.6-2.8,6.7-6.4,9.7-9.9c2.6-3.1,5.4-5.5,9.9-6.7c0.3-0.1,0.6,0,0.8,0.1l7.8,3.5c0.3,0.1,0.7,0.1,1,0l7.2-3.3
		c0.2-0.1,0.4-0.1,0.6-0.1c6.2,0.5,9.1,4.9,12.3,8.7c3.3,4,6.7,7.8,11.6,9.9c4.2,1.8,8.9,0.9,11.7-2.5c2.5-2.9,2.6-7.5,0.3-11.2
		c-0.1-0.2-0.3-0.5-0.5-0.7c-0.8-1.1,0.3-2.5,1.5-1.9c0.4,0.2,0.8,0.5,1.3,0.9c2.3,1.9,3.5,4.6,3.8,7.4c0.7,7.5,1.2,14.9-2.9,21.8
		c-5.5,9.2-13,12.6-23.7,9.4c-8.2-2.5-14.4-8.1-19.7-14.7c-0.8-1-1.6-2.1-2.5-3.1c-0.3-0.3-0.6-0.5-1.1-0.8s-1.2-0.2-1.6,0.3
		c-1.6,1.9-3.1,3.8-4.6,5.6c-5.3,6.5-12,11.3-20.1,13.2c-8.7,2-16.6-0.6-21.6-10.1c-4.1-7.7-4.4-15.6-2.3-23.7
		c0.7-2.4,1.6-4.9,4.3-6C80.7,62.3,81.8,63.6,81.2,64.6z"/>
</g>
</svg>
