<?xml version="1.0" encoding="utf-8"?>
<!-- Generator: Adobe Illustrator 25.2.1, SVG Export Plug-In . SVG Version: 6.00 Build 0)  -->
<svg version="1.1" id="Camada_1" xmlns="http://www.w3.org/2000/svg" xmlns:xlink="http://www.w3.org/1999/xlink" x="0px" y="0px"
	 viewBox="0 0 250 250" style="enable-background:new 0 0 250 250;" xml:space="preserve">
<g>
	<path d="M180.4,117.1c-0.6-13.4-1.1-26.7-1.9-40.1c-0.6-9.6-6.8-14.2-16.4-13.8c-10,0.4-20.1,0.5-30.1,0.1
		c-6.2-0.2-11.9-2.8-16.5-7.1c-2.3-2.2-4.6-2.2-7.1-0.5c-0.6,0.4-1.2,0.8-1.8,1.3c-9.4,7.4-18.4,15.3-30.4,17.5
		c-1.4,15.1-2.8,29.7-4.3,44.7c-3.4-6-6.3-12.2-7.4-18.9c-1-6.3-1.4-12.8-2.6-19c-0.5-2.6-2.2-5.1-3.9-7.2c-1.8-2.2-4.1-3.9-0.8-6.7
		c0.6-0.5,0.3-2,0.7-2.9c1-2.5,1.8-5.3,3.4-7.4c3.5-4.6,7.4-8.9,11.4-13.1c1.8-1.9,4.3-3.2,6.4-4.9c0.9-0.7,1.7-1.5,2.2-2.5
		c3.1-5.5,6.7-10.4,13.2-12.5c1.9-0.6,3.8-1.7,5.3-3c5.1-4.7,12-4.2,18-5.6c6.5-1.5,13.6-1.8,20.3-1.1c11.4,1.3,20.9,6.8,27.5,16.7
		c3.8,5.7,4.9,6.1,14.7,9.6c0.2,1,0,2.1,0.5,2.5c1.4,1,3.1,1.6,4.5,2.6c2.7,1.9,5.2,3.6,4.8,7.8c-0.2,2.7,1.5,5.6,2.5,8.3
		c2.5,7.1,3.1,14.1,0.4,21.3c-4.1,11.4-7.9,22.9-11.8,34.3C180.7,117.3,180.5,117.2,180.4,117.1z M101.3,34.8
		c16.7-3.9,32.6-5.4,43.6,13.2c-1.2-9.5-6.5-16.9-13.9-19.5C119.9,24.6,110.5,29.3,101.3,34.8z M82.9,54.6c12.5-2.2,23.9-9.8,38-4.2
		c-7.4-8.2-13.2-9.9-21.7-6.7c0.9,0.2,1.6,0.4,3,0.8C95.4,48.1,89.1,51.4,82.9,54.6z M93.7,59.5c-9.1,3.6-17.6,9.4-28.9,6.7
		c3.2,4.2,6.4,5.4,10.5,4.4C82.6,68.8,88.4,64.6,93.7,59.5z M143.7,30c5.3,6.6,9.1,13.4,5.6,23c4.2-3.4,5.9-7,5-11.3
		C153.1,35.8,149.1,32.3,143.7,30z M154.1,53.3c8.6-4.5,10.8-8.3,7.6-13.6c-0.4,1.2-0.7,2.1-1,3c-0.3,0.9-0.7,1.8-1,2.7
		C157.3,44.8,155.9,46.8,154.1,53.3z M87.1,58.3c-2.9,0.5-5.7,0.8-8.5,1.5c-2.6,0.6-5.1,1.6-8.1,2.5C77.5,66.1,82.1,61.3,87.1,58.3z
		 M171,45.9c-0.3,0.8-0.5,1.5-0.8,2.3c3.2,0.8,6.4,1.5,9.6,2.3c0.2-0.5,0.3-1,0.5-1.5C177.2,47.9,174.1,46.9,171,45.9z"/>
</g>
<g>
	<path d="M134.2,238.6c-9.5-0.5-24.8-6.6-33.1-19.1c-0.2-0.3-0.6-0.6-0.9-0.6c-2.7-0.2-4.1-2.2-5.5-4.3c-2.4-4-3.8-8.3-4.6-12.7
		c-0.5-2.5-0.8-5.1-1.1-7.8c-0.1-0.7-0.8-1.1-1.5-1l0,0c-0.5,0.1-1-0.1-1.3-0.5c-4.7-7.8-4.4-22.8-0.1-31.7c0.2-0.4,0.7-0.7,1-0.7
		c3.1,0,6.1-0.1,9.1,0c9.5,0.3,16.8-3.8,22.9-10.8c1.8-2.2,3.7-4.3,5.4-6.3c0.3-0.4,0.8-0.5,1.2-0.4c1.8,0.5,2.4,1.8,3.1,2.9
		c3.8,5.6,8.4,10.2,14.8,12.6c5.1,2,10.3,3.5,16,2.2c1.5-0.4,3.2-0.1,5.1-0.1c0.5,0,0.8,0.3,1,0.7c5.2,10.5,5.6,21.1,2.3,32.1
		c-0.2,0.6-0.8,0.9-1.4,0.8l-0.7-0.2c-0.7-0.2-1.3,0.3-1.4,0.9c-1.6,9.3-4.8,17.8-11.9,24.4c-0.4,0.4-0.8,0.4-1.3,0.2
		c-0.3-0.2-0.7-0.3-0.9-0.5c-0.1-0.1-0.3,0.1-0.7,0.1c-2.6,4.2-6.2,7.9-10.4,11c-2.4,1.8-3.7,4.3-3.7,7.3
		C135.4,238.2,134.9,238.6,134.2,238.6z M96.7,190c-0.7,1.2-0.9,1.6-0.8,1.8c1.2,7.3,3.1,14.4,6.7,20.9c5.2,9.3,11.8,16.8,23.5,17.9
		c0.2,0,0.5,0,0.7-0.1c0.8-0.3,1.7-0.4,2.7-0.6c1.2-0.3,1.3-2,0.1-2.4c-0.8-0.2-1.4-0.4-2.2-0.6c-1.5-0.5-3-0.8-4.4-1.4
		c-10.4-4.7-16.8-13.2-21.5-23.1C99.7,198.6,98.5,194.6,96.7,190z M163.8,186c1.6-3,2-6.9,0.9-10.2c-0.4-1.3-2.4-0.9-2.4,0.5
		c0.1,3,0,6-0.8,8.7C161.2,186.4,163.1,187.3,163.8,186z M105.6,202.3c1.1,0.8,2.5-0.8,1.6-1.8c-1-1-1.9-2.2-2.7-3.4
		c-0.9-1.5-1.7-3.3-2.4-5.1c-0.5-1.3-2.4-0.8-2.4,0.6C100.2,196.4,102.5,200.1,105.6,202.3z"/>
	<path d="M84.5,121.3c-1.5,2.6-2.7,5.1-1.7,8.3c0,0.1,0.1,0.3,0.2,0.4c0.3,0.4,0.7,0.9,1.1,1.4c5.1,5.5,8.7,5.9,14.7,1.3
		c3.4-2.6,6.3-6,9.1-9.3c2.4-2.9,5.1-5.2,9.3-6.3c0.3-0.1,0.6,0,0.8,0.1l7.3,3.3c0.3,0.1,0.7,0.1,0.9,0l6.8-3.1
		c0.2-0.1,0.4-0.1,0.6-0.1c5.8,0.5,8.6,4.6,11.6,8.2c3.1,3.8,6.3,7.3,10.9,9.3c4,1.7,8.4,0.8,11-2.4c2.4-2.7,2.4-7.1,0.3-10.5
		c-0.1-0.2-0.3-0.5-0.5-0.7c-0.8-1,0.3-2.4,1.4-1.8c0.4,0.2,0.8,0.5,1.2,0.8c2.2,1.8,3.3,4.3,3.6,7c0.7,7.1,1.1,14-2.7,20.5
		c-5.2,8.7-12.2,11.9-22.3,8.8c-7.7-2.4-13.5-7.6-18.5-13.8c-0.8-0.9-1.5-2-2.4-2.9c-0.3-0.3-0.6-0.5-1-0.8
		c-0.5-0.3-1.1-0.2-1.5,0.3c-1.5,1.8-2.9,3.6-4.3,5.3c-5,6.1-11.3,10.6-18.9,12.4c-8.2,1.9-15.6-0.6-20.3-9.5
		c-3.9-7.2-4.1-14.7-2.2-22.3c0.7-2.3,1.5-4.6,4-5.6C84.1,119.1,85.1,120.3,84.5,121.3z"/>
</g>
</svg>
