<?xml version="1.0" encoding="utf-8"?>
<!-- Generator: Adobe Illustrator 25.2.1, SVG Export Plug-In . SVG Version: 6.00 Build 0)  -->
<svg version="1.1" id="Camada_1" xmlns="http://www.w3.org/2000/svg" xmlns:xlink="http://www.w3.org/1999/xlink" x="0px" y="0px"
	 viewBox="0 0 250 250" style="enable-background:new 0 0 250 250;" xml:space="preserve">
<g>
	<path d="M188.4,182.4c-0.7-15.3-1.2-30.5-2.1-45.8c-0.7-10.9-7.7-16.3-18.8-15.8c-11.4,0.5-22.9,0.6-34.4,0.2
		c-7.1-0.3-13.6-3.1-18.9-8.1c-2.6-2.5-5.3-2.5-8.1-0.5c-0.7,0.5-1.4,1-2,1.5c-10.7,8.5-21.1,17.5-34.7,20
		c-1.7,17.2-3.3,33.9-4.9,51.1c-3.9-6.9-7.2-13.9-8.5-21.6c-1.2-7.2-1.6-14.6-3-21.8c-0.6-2.9-2.6-5.8-4.5-8.2
		c-2-2.6-4.7-4.5-0.9-7.7c0.7-0.6,0.3-2.2,0.8-3.3c1.2-2.9,2-6.1,3.9-8.5c4-5.2,8.5-10.2,13.1-15c2.1-2.2,4.9-3.7,7.3-5.6
		c1-0.8,1.9-1.8,2.5-2.9c3.6-6.3,7.6-11.9,15-14.2c2.2-0.7,4.4-1.9,6-3.5c5.9-5.4,13.7-4.7,20.6-6.4c7.4-1.7,15.5-2.1,23.1-1.2
		c13.1,1.5,23.9,7.7,31.4,19.1c4.3,6.6,5.6,7,16.8,10.9c0.2,1.1,0,2.4,0.5,2.8c1.6,1.2,3.6,1.8,5.2,2.9c3,2.1,5.9,4.1,5.5,8.9
		c-0.3,3.1,1.7,6.3,2.8,9.5c2.9,8.1,3.5,16.1,0.5,24.4c-4.7,13-9,26.1-13.5,39.2C188.9,182.7,188.7,182.5,188.4,182.4z M98.1,88.4
		c19.1-4.5,37.2-6.1,49.8,15.1c-1.3-10.9-7.4-19.3-15.8-22.3C119.4,76.8,108.7,82.1,98.1,88.4z M77.1,111.1
		c14.3-2.5,27.4-11.2,43.4-4.8c-8.5-9.4-15-11.3-24.8-7.6c1,0.3,1.8,0.5,3.4,0.9C91.3,103.6,84.2,107.3,77.1,111.1z M89.5,116.6
		c-10.4,4.1-20.2,10.7-33.1,7.7c3.6,4.8,7.3,6.2,12,5C76.7,127.2,83.4,122.4,89.5,116.6z M146.6,82.9c6.1,7.5,10.4,15.4,6.4,26.2
		c4.8-3.9,6.7-8,5.7-12.9C157.3,89.5,152.7,85.6,146.6,82.9z M158.5,109.5c9.8-5.1,12.3-9.5,8.6-15.5c-0.5,1.3-0.8,2.4-1.2,3.4
		c-0.4,1-0.8,2.1-1.1,3.1C162.1,99.8,160.5,102.1,158.5,109.5z M81.9,115.2c-3.3,0.5-6.6,0.9-9.8,1.7c-2.9,0.7-5.8,1.8-9.2,2.9
		C70.9,124.1,76.2,118.7,81.9,115.2z M177.8,101c-0.3,0.9-0.6,1.8-0.9,2.6c3.6,0.9,7.3,1.8,10.9,2.6c0.2-0.6,0.3-1.1,0.5-1.7
		C184.8,103.4,181.3,102.2,177.8,101z"/>
</g>
</svg>
