<?xml version="1.0" encoding="utf-8"?>
<!-- Generator: Adobe Illustrator 25.2.1, SVG Export Plug-In . SVG Version: 6.00 Build 0)  -->
<svg version="1.1" id="Camada_1" xmlns="http://www.w3.org/2000/svg" xmlns:xlink="http://www.w3.org/1999/xlink" x="0px" y="0px"
	 viewBox="0 0 500.5 377.6" style="enable-background:new 0 0 500.5 377.6;" xml:space="preserve">
<style type="text/css">
	.st0{fill:#FFFFFF;}
</style>
<path class="st0" d="M176.7,116.8c-0.2-0.9-0.5-1.7-0.9-2.5c-0.8-1.3-2.2-2-3.7-1.8l-12.1,1.3c3.7-36.5,9.9-76.1,16-94.4l0.1-1.2
	c-0.6-4.2-9.1-8.5-16.1-7.5l-2.5,0.6c-1.3,0.7-3.2,1.9-3.9,3.1l-13.9,23.8c-13.7,23.5-32.5,56.3-52.1,84.9
	c-9.2,1.5-17.9,2.7-26.1,3.8c-3.7,0.5-7.5,7.5-7.8,12.5l0.2,1.4c0.3,2.5,1.8,4.6,4.8,4.2l14.8-2.3c-12.6,16.8-26.1,51-37.2,58.2
	c-3.2,2.1-7.4,4.4-11.1,4.9l-0.8,0.1c-1.6,0.1-2.8,1.6-2.7,3.2c0,0.1,0,0.2,0,0.2c0.2,1.1,1,2,2,2.3c2.1,0.6,12.5,10.3,20.9,9.2
	c1.4-0.2,2.7-0.7,3.8-1.6c14.3-10.8,31.4-52,48.6-79.7l34.8-4.3c-1.1,9-1.7,27.6-0.4,37.5l0.1,1.1c1.7,10.4,7.1,18.8,22.8,16.7
	l1.4-0.2c1.5-0.2,2.6-1.6,2.4-3.2l-1.3-5.5c-1.3-9.5-0.3-28.2,1.4-49.6c3.4-0.4,6.2-0.8,9-0.9h0.3
	C173.7,130.3,177.5,122.1,176.7,116.8z M133.7,117.4l-25.3,3.1c10.9-18.6,22.8-41,36.1-67.9C140.3,72.5,136.3,96.2,133.7,117.4z"/>
<path class="st0" d="M486.3,39.9c-0.6-4.2-9.8-7-16.2-6.1c-3.1,0.4-5.8,1.6-6.6,3.8l-1.3,5.3c-4.1-4.9-10.5-6.3-17.6-5.7h-0.3
	c-20.2,2.7-33.5,25.8-37.9,49c-6.8,22.4-11.6,36.1-15.6,44.1c-1.1,2.4-5.6,9.6-9.2,10.1c-1.4,0.2-2.6-0.5-3.5-3l-1.2-4.7
	c-1.9-14,3.8-40.2,6.6-53.4c1.9-9.4,3.4-15.6,2.8-20.1l-0.5-1.9c-2.2-7.2-9.9-11.5-16.9-10.6c-5.9,0.8-12,3.9-19.6,5.2
	c0.6-2.1,2-8.8,2.6-12.9l0.2-0.9c-0.3-2.2-4.1-2.9-7.5-2.4c-2.8,0.4-5.8,1.6-6.3,4c-0.9,3.8-1.8,8.2-1.2,12.2
	c0.3,3.1,2.1,5.8,4.7,7.4c-3.2,12.1-4.6,16.9-9.4,32.7c-0.2,0.4-0.2,0.8-0.1,1.2v0.1c-3.4,11.1-9.1,28.4-15.1,41
	c-4.2,8.8-8.5,15.4-12.1,16.2c-1.7,0.2-2.3-2.3-2.8-6.2c-2.1-20.3,9.7-71,12.1-80.4l0.1-1.2c-0.6-4.5-9.8-7.3-16.5-6.4
	c-3.4,0.5-6,1.9-6.6,4.3c-3,10.5-5.4,21.3-7.2,32.1c-4.8,21.5-9.4,36.4-14.1,46.4c-5.7,12.8-10.5,17.4-13.6,17.8
	c-1.4,0.2-2-2.3-2.5-6.2c-2.1-20.3,9.7-71,12.1-80.4l0.1-1.2c-0.6-4.2-9.8-7.3-16.6-6.4c-3.4,0.4-5.7,1.9-6.6,4.3
	c-2.2,6.9-6.2,24.3-8.8,41c-4.1,12.8-10.4,32.2-17,44.3c-1.4,2.5-5.7,10.5-9.4,11l-0.6,0.1c-0.6,0.1-0.7-1-0.9-2.7l-0.5-5.7
	c-0.8-29.3,18.4-110.4,20.6-119.8l0.2-0.9c-0.5-3.9-10.4-7.5-17.7-6.5c-3.4,0.5-6,1.9-7.1,4.4c-3.1,11-22.4,86.7-17.9,120.9
	c0.6,4.8,1.8,8.9,3.6,11.8c3.6,5.5,10.2,5.5,16.9,4.6l3.9-0.5c5.8-1.1,11.1-9.2,13.5-14.1c3.7-6.9,7-14.1,9.7-21.5
	c-0.2,4.6-0.1,9.2,0.5,13.8c0.6,4.8,1.7,8.6,3.8,11.2c3.9,5.5,11.3,5.3,18.3,4.4l3.6-0.5c6.4-1.1,12.4-10.2,17-20.5
	c2-3.9,3.7-7.9,5-12.1c-0.1,3.7,0.1,7.4,0.6,11c0.6,4.8,1.7,8.6,3.8,11.2c3.9,5.5,11.3,5.3,18.3,4.4l3.6-0.5
	c5.3-0.9,10.6-8.3,15.6-18.1c6.7-13.7,12.6-32.2,16.4-44.4c0.2-0.4,0.2-0.8,0.1-1.3c4.3-13.9,6-19.9,8.7-31c1.5,0.3,3.1,0.3,4.6,0
	c4.8-0.6,9.6-2.7,13.2-3.5c-3,15.8-12.4,52.5-9.6,73.5c0.4,3.9,1.7,7.6,3.8,10.9c4.2,6,14.1,5,20.8,4.1l2.8-0.4
	c5-0.7,8.7-3.2,13.7-13c2.7-5.3,5.7-13,9.2-23.7c0.1,0.7,0.2,1.4,0.2,2.1c1.9,14.6,9,25.1,22.6,23.6h0.3
	c11.2-1.5,18.5-13.6,23.7-25.7c0.2,3.4,0.3,6.2,0.6,9c0.6,4.8,1.8,8.9,3.8,11.5c3.5,4.8,9.6,5.2,15.9,4.7c0.1,0,0.2,0,0.4,0l0.6-0.1
	l3.5-0.6c0.5-0.6,0.8-1.3,0.7-2.1l-0.2-1.1c-0.1-1-0.5-2-1.2-2.7c-0.9-0.4-1.1-2.1-1.4-4.4c-0.4-3.5-0.6-7-0.5-10.5
	c1-23.6,10.3-63.1,12.3-71.4L486.3,39.9z M454.8,77.5c-1.8,7.7-13.1,38.9-21.8,40.3c-2.8,0.4-4.3-2.3-4.9-6.8
	c-2.2-16.5,8.7-57.1,21.3-58.8l1.7,0.1c3.2,0.7,4.8,3.7,5.3,7.5C457.2,65.8,455.7,74,454.8,77.5z"/>
<path class="st0" d="M288.4,202.5c-0.6,4.6-2.3,9-5.2,11.2c5.6-1,11.2-1.9,16.8-2.8c-3.5-0.9-5.4-4-6.1-7.8
	c-0.2-1.3-0.3-2.6-0.3-3.9C292,200.7,290.3,201.8,288.4,202.5z"/>
<path class="st0" d="M391.8,172c-0.5,2.7-3.5,13.7-6,14.3c-0.8,0.2-1.2-0.7-1.4-2.3c-0.7-5.7,2.2-19.9,5.7-20.8h0.5
	c0.9,0.2,1.4,1.2,1.5,2.5C392.4,167.9,392.2,170,391.8,172z"/>
<path class="st0" d="M307.3,184.5c0-0.4-0.2-0.7-0.6-0.8c-0.2-0.1-0.4-0.1-0.7,0c-1.8,0.4-3.7,4.6-4.2,6c-0.8,2.2-1.4,4.5-1.7,6.8
	c0.4,0.2,0.8,0.2,1.2,0.1C304.7,195.8,307.8,187.3,307.3,184.5z"/>
<path class="st0" d="M281,191.8c-0.3-0.8-0.6-1.2-1.1-1.1h-0.2c-2.3,0.7-4.6,9.7-4.8,12.3c-0.6,4-0.8,8.1-0.7,12.1l4.2-0.7
	c-1.4-0.7-2.4-2-2.7-3.5c-0.3-1.7,0-3.5,0.9-5c1.1-1.7,3-2.5,5-3.2c0.4-3,0.3-6.1-0.2-9.1L281,191.8z"/>
<path class="st0" d="M278,207.1c-0.6,0.9-0.8,1.9-0.6,3c0.1,0.6,0.4,1,0.9,0.9c0.5-0.1,1-0.6,1.6-1.9c0.7-1.4,1.3-2.9,1.6-4.5
	C280.1,205.1,278.9,206,278,207.1z"/>
<path class="st0" d="M484.8,168.6c-2.1-11.8-5.5-26.2-7.6-38.1l-0.5,2.9c-0.2,0.2-1.3-0.8-1.5-0.8c-1,0.1-1.1,1.4-2.1,1.5l-0.6,0.1
	c-0.1,0-0.2,0-0.4,0l-97.2,17.6c-0.2,0.9-0.5,2.6-0.8,3.9c-0.1,0.6-0.2,1.2-0.3,1.7c-0.1,0.4-0.6,0.8-1.3,1c-1.6,0.4-4-0.1-4.2-1.3
	c0-0.2,0-0.5-0.1-0.8c0-1.1,0.1-2.2,0.2-3.3l-52.8,9.6l-43.6,7.9c-1.7,0.5-3.4,1-5.1,1.4c-20.4,5.2-41,10-61.4,15.5
	c4.9,0.1,9.4,1.8,10.7,6.8v0.1c1.5,6.2-2,13-7.5,16.4c4.2,0.6,6.4,2.8,7.2,5.8c0.4,2,0.3,4-0.2,6c-0.5,1.9-1.5,3.6-2.7,5
	c4.3-1,8.5-1.9,12.8-2.8c-2.8-0.3-4.5-2.8-5.3-6c-1.7-7.4,1.4-19,9.2-20.8h0.1c1.8-0.6,3.7-0.2,5.1,1.1l0.2-1.5
	c0.3-0.7,1-1.2,1.8-1.3c1.8-0.4,4.5,0.1,4.7,1.3v0.3c-0.5,2.7-2.5,17-1.4,22.5c0.1,0.4,0.2,0.9,0.4,1.3c0.1,0.3,0.3,0.5,0.5,0.4
	c0.4-0.1,0.8-0.4,1-0.7c2.2-2.6,6.7-22.1,7.3-25.5c-0.8-0.4-1.3-1.1-1.5-1.9c-0.2-1.1-0.2-2.3,0.1-3.4c0.1-0.7,0.9-1.1,1.7-1.3
	c0.9-0.2,2-0.2,2.2,0.5v0.3c-0.1,1.2-0.3,3.1-0.4,3.7c2.1-0.6,3.8-1.6,5.4-2c2.1-0.5,4.2,0.6,5,2.5l0.2,0.5c0.3,1.3,0,3.1-0.3,5.8
	c-0.5,3.9-1.5,11.5-0.6,15.5l0.4,1.3c0,0.1,0.1,0.2,0.2,0.3c0.2,0.3,0.5,0.5,0.9,0.5c0.4-0.2,0.8-0.4,1.1-0.8c0.5-0.7,1-1.4,1.3-2.2
	c0.9-2.4,2-6.6,3.5-13.3l0-0.3c0-0.1,0-0.2,0.1-0.3c0.8-9.6,2.3-20.7,3-23.9c0.1-0.7,0.8-1.2,1.8-1.4c2-0.5,4.8-0.1,5.1,1.2v0.3
	c-0.3,1.6-1,6.7-1.8,12.7c0.9-2,2.4-3.8,4.3-4.2l0.2-0.1c4-1,6.1,3,7.1,6.8l0.2,0.7c0.4,2.5,0.6,5,0.4,7.5c2.2-0.9,4.2-2.4,5-5
	c0-0.1,4-14.2,9.7-15.7l0.3-0.1c3-0.7,5.7,0.3,6.3,3.6v0.2c0.9,6.1-3.4,14.9-7.7,15.9c-0.8,0.2-1.6,0.1-2.3-0.3
	c0,1.1,0.1,2.2,0.3,3.3c0.6,3.2,2.1,6.4,4.7,6.4l0.9-0.1c0.6-0.1,1.2-0.3,1.7-0.6c2.5-1.7,5.6-6,8.4-17.6c-0.3,2.1,0.1-0.4,0,0
	c0.9-7.3,4.3-14.8,10-16.3h0.1c2-0.5,3.8-0.2,5,1.3l0.3-1.7c0.3-0.8,1-1.4,1.9-1.5c1.8-0.5,4.4,0.1,4.7,1.6v0.4
	c-0.5,3.1-3.1,19.7-2.2,26.2c0.2,1.3,0.4,2,0.8,2c2.6-0.7,7.1-20,7.1-20c0,0,1.5-6.5,2.2-10.4c-0.8-0.5-1.3-1.3-1.4-2.3
	c-0.1-1.3-0.1-2.7,0.2-4c0.3-0.8,0.9-1.4,1.7-1.5c0.9-0.2,2-0.2,2.1,0.6v0.3c-0.1,1.4-0.4,3.6-0.6,4.3c2.1-0.6,3.8-1.8,5.5-2.3
	c2.2-0.5,4.3,0.9,4.9,3l0.2,0.6c0.2,1.5-0.1,3.6-0.5,6.7c-0.6,4.5-1.9,13.3-1.2,17.9l0.4,1.5c0.3,0.8,0.6,1,1,0.9
	c1-0.2,2.2-2.7,2.5-3.5c1-2.7,2.2-7.2,3.8-14.6c0-0.2,0-0.5,0.1-0.7c0.1-0.2,0.1-0.5,0.2-0.8c0.6-5.5,1.4-10.7,1.9-13.4
	c0.3-0.8,1-1.5,1.8-1.6c1.9-0.5,4.5,0.3,4.7,1.7v0.4c-0.3,2.2-3.3,22.3-2.5,28.1c0.1,1,0.4,1.6,0.8,1.5c2.4-0.6,7.3-20.9,7.2-20.4
	c-0.1,0.5,4.5-14.8,10.2-16.2h0.1c2-0.4,3.8-0.1,5,1.6l0.3-1.9c0.3-0.8,1-1.3,1.9-1.5c1.8-0.5,4.4,0.3,4.6,1.8v0.5
	c-0.5,3-3,17-3.1,25.3c0,1.2,0,2.4,0.1,3.6c0.1,0.8,0.2,1.4,0.4,1.5c0.2,0.3,0.3,0.6,0.3,0.9l0,0.4c0,0.4-0.1,0.8-0.4,0.9
	c-2.1,0.4-4.4,0.7-5.6-1.3c-0.7-1.2-1-2.6-1.1-4c-0.1-0.9-0.2-2-0.2-3.2c-1.4,4.3-3.4,8.6-6.6,9.2h-0.1c-3.8,0.7-5.9-2.8-6.5-7.8
	c0-0.3-0.1-0.5-0.1-0.8c-1.7,6.2-3.8,12.4-6.2,13l-1,0.2c-2,0.4-4.1,0.5-5.2-1.2c-0.7-1.2-1.2-2.6-1.3-4c-0.2-1.2-0.2-2.3-0.2-3.5
	c-0.5,2.3-1.2,4.6-2,6.8c-1.3,3.4-2.3,4.3-3.7,4.6l-0.8,0.2c-1.9,0.4-4.7,0.9-5.9-1c-0.6-1.1-1-2.3-1.2-3.5
	c-1-6.9,1.2-19.1,1.9-24.4c-1.2,0.6-2.4,1.1-3.7,1.5c-0.4,0.1-0.8,0.2-1.3,0.1c-0.6,3.8-6.8,30.8-10.4,31.7l-0.9,0.2
	c-2,0.4-4,0.6-5.2-1.1c-0.7-1.1-1.1-2.3-1.2-3.6c-0.2-0.9-0.2-1.8-0.3-2.8c-1.2,4-3.2,7.9-6.2,8.6h-0.2c-3.8,0.7-5.9-2.5-6.7-7
	c-0.1-0.5-5.2,9.5-7.5,11.1c15.4-2.4,30.9-4.4,46.5-6.2c30.3-3.5,60.8-5.5,91.3-5.8c8.2,0,16.3-0.4,24.2-3c8.9-2.9,14.6-8.4,15-18.2
	c0.1-0.5,0.2-0.9,0.4-1.4L484.8,168.6z M458.8,175.4c0,0.1,0,0.2-0.1,0.3c0,0.1,0,0.2-0.1,0.2c0,0.1-0.1,0.2-0.1,0.3
	c0,0.1-0.1,0.3-0.2,0.4c0,0,0,0.1,0,0.1c-0.1,0.2-0.1,0.3-0.2,0.5v0c-0.1,0.2-0.2,0.4-0.2,0.6c-0.1,0.2-0.2,0.4-0.2,0.7
	c-0.4-0.3-0.7-0.7-1-0.9c-0.6-0.4-1-0.8-1.3-1.1c-0.1-0.1-0.2-0.2-0.3-0.3c-0.1-0.1-0.1-0.2-0.2-0.4v-0.1c0-0.1,0-0.2,0-0.3
	c0,0,0-0.1,0-0.1c0-0.1,0-0.1,0.1-0.2c0,0,0-0.1,0-0.1c0-0.1,0.1-0.1,0.1-0.2c0.3-0.6,0.8-1.2,1.4-1.6h0.1c0.3-0.1,1.3,0.4,1.9,0.9
	c0.2,0.2,0.3,0.3,0.4,0.5c0,0.1,0,0.2,0,0.4C458.8,175.2,458.8,175.3,458.8,175.4z"/>
<path class="st0" d="M254.7,215.8c0.2,1,0.6,2,1.1,2.8c-3.9,0.7-7.8,1.5-11.7,2.3c2.1-3.8,3.8-10.8,4.7-15.2c0-0.1,0.1-0.1,0.1-0.2
	c0.9-4.3,1.3-6,1.8-9.3c0.4,0,0.9,0,1.3-0.1c1.3-0.3,2.6-1,3.6-1.3C255.2,199.3,253.4,209.9,254.7,215.8z"/>
<path class="st0" d="M324,200c2.3-0.6,5-10.9,5.5-13.3c0.3-1.9,0.4-3.8,0.2-5.8c-0.2-1.2-0.7-2.1-1.6-2.2h-0.5
	c-3.5,0.9-6,13.9-5.1,19C322.7,199.4,323.3,200.2,324,200z"/>
<path class="st0" d="M228.5,220.1c2.3-0.5,4.7-9.3,5-11.4c0.3-1.6,0.3-3.3,0-4.9c-0.2-1.1-0.8-1.8-1.7-1.9h-0.5
	c-3.5,0.8-5.6,11.9-4.5,16.3C227.1,219.5,227.7,220.2,228.5,220.1z"/>
<path class="st0" d="M233.9,219.7c-0.2-0.8-0.3-1.5-0.4-2.5c-0.9,2.7-2.2,5.5-4.3,6.7c2-0.4,4-0.8,6-1.2
	C234.5,221.8,234.1,220.8,233.9,219.7z"/>
<path class="st0" d="M200.7,212c-0.3,4.1-0.8,11.1-0.1,13.9c0.1,0.4-0.2,0.7-0.5,0.8l-0.6,0.1c-1.9,0.3-4.2,0.4-5-1.1
	c-0.1-0.3-0.3-0.6-0.3-0.9c-1.4-5.3,0.6-21.9,1.5-26.2c0.1-0.6,0.8-1,1.7-1.2c1.9-0.4,4.9,0,5.2,1.1v0.3L201,209l0.8-0.1
	c2.7-0.6,5.3-3.4,6.9-6.7c1.3-2.5,2.1-5.8,1.4-8.3c-0.6-2.5-2.6-4-6.8-3.4l-2.7,0.5c-9.7,2.3-22.2,9.3-21.9,18.7
	c0.1,0.3-0.1,0.7-0.5,0.7c0,0,0,0-0.1,0h-0.4c-2,0-4.7-3.1-5.5-5.8c-0.3-0.9-0.2-2,0.4-2.8c2.4-2.9,5.2-5.3,8.4-7.2
	c-31.9,9.9-63.2,21.8-93.8,35.4c-6.9,3.1-13.7,6.4-20.4,10c-3.8,2-6.7,5.3-7,10c-0.6,7.9,5.4,14.2,13.3,13.8
	c2.3-0.1,4.5-0.5,6.7-1.1c5.9-1.6,11.7-3.4,17.6-5.1c30.4-9,61-17.2,91.8-24.5c-1.1-0.5-2.1-1.1-3-1.8c-0.2-0.2-0.4-0.4-0.4-0.7
	c-0.1-0.5,0-1.1,0.4-1.2c0.1,0,0.3,0,0.3,0.1c3,1.4,6.3,2.1,9.6,1.9c0.5,0,1-0.1,1.5-0.2c1.1-0.2,2.1-0.5,3.1-0.9
	c3.9-1.6,7-5,8.3-10.4c0.4-1.4,0.5-2.9,0.3-4.4C208.4,211.6,203.3,213.1,200.7,212z M94.2,243.7c0,0.1,0,0.1,0,0.2c0,0,0,0,0,0
	c-0.1,0.3-0.2,0.5-0.4,0.8c0,0.1-0.1,0.1-0.2,0.2l-0.1,0.1c-0.1,0.1-0.2,0.2-0.4,0.2c-0.2,0-0.3,0-0.5-0.1l-0.2-0.1
	c-0.2-0.1-0.4-0.2-0.6-0.3c-0.1,0-0.1,0-0.2-0.1c0,0,0,0,0,0c-0.1,0-0.2-0.1-0.3-0.2c-0.1,0-0.1-0.1-0.2-0.2c-0.1,0-0.1-0.1-0.1-0.2
	v0c-0.1-0.1-0.1-0.2-0.1-0.2c-0.1-0.4,0-0.8,0.2-1.1c0.1-0.1,0.1-0.3,0.2-0.4c0.1-0.1,0.1-0.3,0.2-0.5v0c0.1-0.3,0.3-0.6,0.4-0.9
	c0,0,0-0.1,0.1-0.2c0.5,0.4,0.9,0.8,1.3,1c0.1,0.1,0.2,0.2,0.3,0.2c0.1,0.1,0.2,0.2,0.3,0.3c0.1,0.1,0.1,0.2,0.2,0.2
	c0.1,0.1,0.2,0.3,0.2,0.4v0C94.3,243.4,94.3,243.5,94.2,243.7L94.2,243.7z"/>
<path class="st0" d="M424.2,318.5c-59.6-19.9-119.2-39.9-178.8-59.8c-8.4-2.8-15.9-1.7-23,3c-4,2.5-7.8,5.3-11.5,8.3
	c-3.5,2.9-7,3.2-11.2,1.6c-19.9-7.2-39.9-14.2-59.8-21.2c-1.7-0.6-3.6-0.7-5.4-0.3c-7.1,1.8-14.1,3.8-21.1,5.8
	c-3.8,1.1-7.5,2.3-11.9,3.6c1.8,0.7,2.8,1,3.8,1.4L221,301c35.8,12.4,71.6,24.8,107.4,37.2c27.5,9.5,55,19.1,82.5,28.7l2.9-0.5
	c1.1-1.4,2-2.9,2.8-4.4c4.4-10.7,8.6-21.4,12.9-32.1C432.6,322.1,432.1,321.2,424.2,318.5z M414.6,350.4c-0.8,1.6-1.6,3.2-2.5,4.7
	c-2.3,4.3-3.6,4.8-8.4,3.2c-16.7-5.7-33.4-11.3-50-17l-11.1-3.8c-39.5-13.4-78.9-26.8-118.5-40.2c-3-1-4.1-2.5-2.8-5
	c3.3-6.5,6.9-12.8,10.8-18.9c0.6-0.9,1.1-1.8,1.7-2.6c-0.1,0.3-0.2,0.6-0.3,0.9c-0.2,0.6-0.3,1.2-0.5,1.7c-1.7,4.6-3.4,9.2-5.1,13.9
	c0,0.1,0,0.1-0.1,0.2c-1.7,4.7-1.2,5.5,3.5,7.2c11.5,4,23.1,7.9,34.6,11.9l31.1,10.7c34.9,12,69.9,24,104.8,35.9
	c0.7,0.2,1.3,0.4,1.8,0.6c0.9,0.4,2,0.5,3,0.3c0.5-0.1,1-0.4,1.3-0.7c0.6-0.5,1.2-1.1,1.7-1.8c0.2-0.3,0.5-0.5,0.7-0.8
	c2.9-3.5,5.8-7.1,8.7-10.7l0.2,0.1c0.1,0.1,0.2,0.2,0.3,0.2C418,343.8,416.3,347.1,414.6,350.4z"/>
<path class="st0" d="M472.5,134.2l-0.5,0.1c0.1,0,0.2,0,0.4,0l0.6-0.1C472.8,134.2,472.7,134.2,472.5,134.2z M458.8,174.7
	c-0.1-0.2-0.2-0.4-0.4-0.5c-0.6-0.6-1.5-1.1-1.9-0.9h-0.1c-0.6,0.4-1.1,0.9-1.4,1.6c0,0.1-0.1,0.1-0.1,0.2c0,0,0,0.1,0,0.1
	c0-0.1,0.1-0.1,0.1-0.2c0.3-0.6,0.8-1.2,1.4-1.6h0.1c0.4-0.2,1.4,0.3,1.9,0.9c0.2,0.2,0.3,0.3,0.4,0.5c0,0.3,0,0.6-0.1,0.9
	c0-0.1,0.1-0.2,0.1-0.3c0-0.1,0-0.2,0-0.3C458.8,174.9,458.8,174.8,458.8,174.7z M456.7,177.6c0.3,0.3,0.7,0.6,1,0.9
	C457.3,178.1,457,177.8,456.7,177.6z M364.4,179c0,0.2,0,0.5-0.1,0.7C364.4,179.5,364.4,179.3,364.4,179c0.1-0.2,0.1-0.5,0.2-0.8
	C364.5,178.5,364.4,178.8,364.4,179z M268.3,201.3l0,0.3C268.3,201.5,268.3,201.4,268.3,201.3c0-0.1,0.1-0.2,0.1-0.3
	C268.3,201.1,268.3,201.2,268.3,201.3z"/>
<path class="st0" d="M458.7,175.9c0,0.1-0.1,0.2-0.1,0.3c0,0.1-0.1,0.3-0.2,0.4c0,0,0,0.1,0,0.1c-0.1,0.2-0.1,0.3-0.2,0.5v0
	c-0.1,0.2-0.2,0.4-0.2,0.6c-0.1,0.2-0.2,0.4-0.2,0.7c-0.4-0.3-0.7-0.7-1-0.9c-0.6-0.4-1-0.8-1.3-1.1c-0.1-0.1-0.2-0.2-0.3-0.3
	c-0.1-0.1-0.1-0.2-0.2-0.4c0,0,0-0.1,0-0.1c0-0.1,0-0.2,0-0.3c0,0,0-0.1,0-0.1c0-0.2,0.1-0.3,0.2-0.5c0.3-0.6,0.8-1.2,1.4-1.6h0.1
	c0.3-0.1,1.3,0.4,1.9,0.9c0.2,0.2,0.3,0.3,0.4,0.5C458.9,175.1,458.8,175.5,458.7,175.9z"/>
<path class="st0" d="M94.2,243.2c-0.2-0.5-0.6-0.9-1-1.2c-0.4-0.3-0.8-0.6-1.3-1c-0.3,0.8-0.6,1.4-0.8,1.9c-0.2,0.3-0.3,0.7-0.2,1.1
	c0,0.1,0.1,0.2,0.1,0.2c0.4,0.5,1,0.8,1.6,0.9c0.1,0,0.3,0.1,0.5,0.1c0.3,0,0.9-0.9,1.1-1.5C94.3,243.5,94.3,243.4,94.2,243.2z"/>
<path class="st0" d="M268.3,201c0,0.1,0,0.2,0,0.3c0,0.1,0,0.2-0.1,0.3l0-0.3C268.3,201.2,268.3,201.1,268.3,201z"/>
<path class="st0" d="M343.6,182.4"/>
<path class="st0" d="M364.5,178.3c0,0.3-0.1,0.5-0.1,0.8c0,0.2-0.1,0.4-0.1,0.7c0-0.2,0-0.5,0.1-0.7
	C364.4,178.8,364.5,178.5,364.5,178.3z"/>
</svg>
